<svg id="Layer_1" data-name="Layer 1" xmlns="http://www.w3.org/2000/svg" viewBox="0 0 506.35 116.09"><defs><style>.cls-1{fill:none;}.cls-2{opacity:0.54;}.cls-12,.cls-2{font-size:53.81px;font-family:ProductSans-Regular, ProductSans Regular;}.cls-3{letter-spacing:-0.04em;}.cls-4{letter-spacing:-0.02em;}.cls-5{letter-spacing:-0.02em;}.cls-6{letter-spacing:-0.01em;}.cls-7{letter-spacing:-0.02em;}.cls-8{letter-spacing:-0.03em;}.cls-9{letter-spacing:-0.01em;}.cls-10{letter-spacing:-0.02em;}.cls-11{letter-spacing:-0.02em;}.cls-12,.cls-19{fill:#0f9d58;}.cls-13{letter-spacing:-0.02em;}.cls-14{letter-spacing:-0.02em;}.cls-15{letter-spacing:-0.02em;}.cls-16{letter-spacing:-0.01em;}.cls-17{letter-spacing:-0.03em;}.cls-18{letter-spacing:-0.01em;}.cls-19{fill-rule:evenodd;}</style></defs><title>SVtrusted-EN</title><rect class="cls-1" y="1.74" width="443.79" height="57.17"/><text class="cls-2" transform="translate(188.76 45.04)"><tspan class="cls-3">S</tspan><tspan class="cls-4" x="24.4" y="0">t</tspan><tspan class="cls-5" x="41" y="0">r</tspan><tspan class="cls-6" x="57.32" y="0">e</tspan><tspan class="cls-7" x="83.69" y="0">e</tspan><tspan class="cls-8" x="109.75" y="0">t </tspan><tspan class="cls-9" x="136.28" y="0">V</tspan><tspan class="cls-10" x="165.87" y="0">i</tspan><tspan class="cls-11" x="177.42" y="0">e</tspan><tspan x="203.05" y="0">w</tspan></text><text class="cls-12" transform="translate(242.76 102.22)"><tspan class="cls-13">t</tspan><tspan class="cls-14" x="16.6" y="0">r</tspan><tspan class="cls-15" x="33.26" y="0">u</tspan><tspan class="cls-16" x="61.59" y="0">s</tspan><tspan class="cls-17" x="82.26" y="0">t</tspan><tspan class="cls-18" x="98.49" y="0">e</tspan><tspan x="124.86" y="0">d</tspan></text><path class="cls-19" d="M99.89,113.44,89.65,103.2l2.9-2.9,7.34,7.34,15.54-15.53,2.89,2.9Zm18.43-30.72H89.65a4.08,4.08,0,0,0-4.08,4.09l0,26.5a4.13,4.13,0,0,0,1.8,3.4L104,127.78l16.62-11.07a4.13,4.13,0,0,0,1.8-3.4l0-26.5A4.09,4.09,0,0,0,118.32,82.72Z" transform="translate(109.26 -14.41)"/></svg>